<svg id="圖層_1" data-name="圖層 1" xmlns="http://www.w3.org/2000/svg" viewBox="0 0 2551.18 3685.04"><defs><style>.cls-1{fill:#c5e5df;opacity:0.8;}.cls-15,.cls-16,.cls-17,.cls-18,.cls-19,.cls-2,.cls-20,.cls-21,.cls-22,.cls-23,.cls-36,.cls-37{opacity:0.52;}.cls-3{fill:#1e2c5b;}.cls-4{fill:#42a0a9;}.cls-5{fill:#182447;}.cls-6{fill:#1e2b5b;}.cls-7{fill:#73c3a8;}.cls-8{fill:#1c2951;}.cls-9{fill:#153374;}.cls-10{fill:#2f8193;}.cls-11{fill:#5cb7c1;}.cls-12{fill:#133476;}.cls-13{fill:#318899;}.cls-14,.cls-21,.cls-36,.cls-37{fill:none;}.cls-14{stroke:#f7f7f7;}.cls-14,.cls-19,.cls-21,.cls-36,.cls-37{stroke-miterlimit:10;}.cls-14,.cls-19,.cls-21,.cls-36{stroke-width:8px;}.cls-15{fill:#30799c;}.cls-16{fill:#4fb4ac;}.cls-17{fill:#b6dcbd;}.cls-18{fill:#afd9b4;}.cls-19{fill:#3076a2;}.cls-19,.cls-21{stroke:#eff3f4;}.cls-20{fill:#7ac7b4;}.cls-22{fill:#bfe2df;}.cls-23{fill:#419ab3;}.cls-24{fill:#1c1e3d;}.cls-25{fill:#1d2d67;}.cls-26{fill:#3b96a2;}.cls-27{fill:#1d2b57;}.cls-28{fill:#1d2d60;}.cls-29{fill:#1d5691;}.cls-30{fill:#409ab3;}.cls-31{fill:#1c1f40;}.cls-32{fill:#3e98ae;}.cls-33{fill:#97d1bd;}.cls-34{fill:#1b1f40;}.cls-35{fill:#0e357d;}.cls-36,.cls-37{stroke:#f2f3f7;}.cls-37{stroke-width:14px;}</style></defs><title>刷淡</title><rect class="cls-1" x="-1" width="2551.18" height="3685.04"/><g class="cls-2"><polygon class="cls-3" points="0 0 571.65 0 1076 809.61 841.22 809.61 0 0"/><polygon class="cls-4" points="0 0 841.22 809.61 0 404.81 0 0"/><polygon class="cls-5" points="0 0 420.61 404.81 0 809.61 0 0"/><polyline class="cls-6" points="0 404.81 841.22 809.61 0 809.61 420.61 404.81"/><polygon class="cls-7" points="841.22 809.61 1076 809.61 389.69 1263.24 841.22 809.61"/><polygon class="cls-8" points="0 827 420.61 1244.39 128.17 1422.65 0 1348.74 0 827"/><polygon class="cls-9" points="0 1348.74 128.17 1422.65 0 1505.26 0 1348.74"/><polygon class="cls-10" points="628.17 170.48 484.7 227 593.39 318.3 628.17 170.48"/><polygon class="cls-11" points="484.7 227 593.39 318.3 467.3 370.48 484.7 227"/><polygon class="cls-12" points="841.22 809.61 0 809.61 0 827 420.61 1244.39 841.22 809.61"/><polygon class="cls-13" points="0 809.61 263.64 809.61 131.82 957.81 0 827 0 809.61"/><line class="cls-14" x1="869" y1="1427" y2="540"/></g><polygon class="cls-15" points="381 1852 581 1842.52 499 2026 381 1852"/><polygon class="cls-16" points="381 1852 499 2026 292.09 2047.41 381 1852"/><polygon class="cls-17" points="891.5 1525.55 869.71 1426.29 968.5 1451.68 891.5 1525.55"/><polygon class="cls-16" points="891.5 1525.55 968.5 1451.68 996.85 1553.39 891.5 1525.55"/><polygon class="cls-16" points="1387.27 880.39 1413.86 621.4 1633.87 762.41 1387.27 880.39"/><polygon class="cls-18" points="1387.27 880.39 1633.87 762.41 1621.28 1032.6 1387.27 880.39"/><line class="cls-19" x1="793" x2="657.45" y2="137.72"/><polygon class="cls-20" points="1995 324 2117 394 1995 464 1995 324"/><line class="cls-21" x1="2550.18" y1="496" x2="-1" y2="2248"/><polygon class="cls-22" points="2550.18 506 2322 661.34 2550.18 661.34 2550.18 506"/><polygon class="cls-23" points="2322 661.34 2550.18 661.34 2550.18 774 2322 661.34"/><g class="cls-2"><polygon class="cls-24" points="2542.18 976 1088.81 1894.09 2542.18 3322.23 2542.18 976"/><polygon class="cls-25" points="1438.13 1563.27 1980.98 1223.66 1980.98 1899.27 1438.13 1563.27"/><polygon class="cls-26" points="1088.81 1894.09 1972.62 1894.09 1635.68 2431.47 1088.81 1894.09"/><polygon class="cls-27" points="2542.18 976 1635.68 2431.47 2542.18 2431.47 2542.18 976"/><polygon class="cls-28" points="2542.18 1401.92 2311.94 1750.16 2542.18 1894.09 2542.18 1401.92"/><polygon class="cls-29" points="2542.18 1631.27 2311.94 1750.16 2542.18 1894.09 2542.18 1631.27"/><polygon class="cls-30" points="2542.18 1703.73 2311.94 1750.16 2542.18 1894.09 2542.18 1703.73"/><polygon class="cls-31" points="2311.94 1750.16 2015.29 1762.68 2163.61 2026.67 2311.94 1750.16"/><polygon class="cls-32" points="2311.94 1750.16 2088.93 2149.11 2542.18 2149.11 2311.94 1750.16"/><polygon class="cls-33" points="2108.72 1928.97 2225.16 2149.11 1980.98 2149.11 2108.72 1928.97"/><polygon class="cls-33" points="2088.93 2162.78 2519.8 2162.78 2311.94 2575.26 2088.93 2162.78"/><polygon class="cls-32" points="1972.62 2162.78 2225.16 2162.78 2098.89 2369.02 1972.62 2162.78"/><polygon class="cls-34" points="1980.98 2227.26 2184.8 2575.26 1782.02 2575.26 1980.98 2227.26"/><polygon class="cls-35" points="2304.37 2987.26 2304.37 3267.26 2059.68 3107.26 2304.37 2987.26"/></g><line class="cls-36" x1="1077" x2="1414.86" y2="621.4"/><polyline class="cls-36" points="1621.28 1032.6 1805.15 1364.23 2028.89 1770.9"/><line class="cls-36" x1="1995" x2="1995" y2="1244.39"/><line class="cls-36" x1="2310.92" x2="2310.92" y2="1782.81"/><line class="cls-36" x1="2310.92" y1="2586.89" x2="2310.92" y2="3459.98"/><line class="cls-37" x1="1667.86" y1="2453.27" x2="2550.18" y2="2453.27"/></svg>